<svg width="650" height="650" xmlns="http://www.w3.org/2000/svg">

 <g>
  <title>Layer 1</title>
  <ellipse ry="325" rx="325" id="svg_3" cy="325" cx="325" fill="#17191e"/>
  <ellipse fill="#1fa550" ry="263.5" rx="263.5" id="svg_2" cy="326.99999" cx="325.00001"/>
  <path fill="#17191e" id="svg_1" d="m134.49998,434.26788l0,-27.21429q0,-48.98572 22.11161,-89.46698t59.53126,-66.33483l-51.02679,-51.02679l23.8125,-24.49286l57.83037,57.83037q17.68929,-8.16429 37.75983,-12.58661t40.48126,-4.42232q20.41072,0 40.48126,4.42232t37.75983,12.58661l57.83037,-57.83037l23.8125,24.49286l-51.02679,51.02679q37.41965,25.85358 59.53126,66.33483t22.11161,89.46698l0,27.21429l-381.00006,0zm272.1429,-54.42858q11.56607,0 19.39018,-7.82411t7.82411,-19.39018q0,-11.56607 -7.82411,-19.39018t-19.39018,-7.82411q-11.56607,0 -19.39018,7.82411t-7.82411,19.39018q0,11.56607 7.82411,19.39018t19.39018,7.82411zm-163.28574,0q11.56607,0 19.39018,-7.82411t7.82411,-19.39018q0,-11.56607 -7.82411,-19.39018t-19.39018,-7.82411q-11.56607,0 -19.39018,7.82411t-7.82411,19.39018q0,11.56607 7.82411,19.39018t19.39018,7.82411z"/>
 </g>
</svg>