<?xml version="1.0" encoding="UTF-8"?>
<!DOCTYPE svg PUBLIC "-//W3C//DTD SVG 1.1//EN" "http://www.w3.org/Graphics/SVG/1.1/DTD/svg11.dtd">
<svg xmlns="http://www.w3.org/2000/svg" version="1.1" width="701px" height="704px" style="shape-rendering:geometricPrecision; text-rendering:geometricPrecision; image-rendering:optimizeQuality; fill-rule:evenodd; clip-rule:evenodd" xmlns:xlink="http://www.w3.org/1999/xlink">
<g><path style="opacity:1" fill="#FFF" d="M 271.5,20.5 C 286.345,19.3839 298.179,24.7172 307,36.5C 311.255,44.0092 315.255,51.6759 319,59.5C 329.562,73.466 343.395,78.2994 360.5,74C 368.046,71.4625 374.213,66.9625 379,60.5C 383.191,52.9225 387.191,45.2558 391,37.5C 405.149,20.6043 421.982,17.4377 441.5,28C 449.273,34.0508 454.106,41.8841 456,51.5C 456.333,61.8333 456.667,72.1667 457,82.5C 463.915,105.879 479.415,115.379 503.5,111C 513.35,105.819 522.683,99.8194 531.5,93C 551.113,84.1111 567.28,88.2778 580,105.5C 586.08,116.21 586.747,127.21 582,138.5C 576.234,148.029 571.568,158.029 568,168.5C 566.991,193.326 578.824,207.326 603.5,210.5C 612.639,209.244 621.806,208.244 631,207.5C 656.582,210.422 668.249,224.755 666,250.5C 664.321,258.847 660.154,265.68 653.5,271C 643.867,276.401 635.033,282.901 627,290.5C 615.437,309.103 617.604,325.937 633.5,341C 644.568,346.532 655.901,351.532 667.5,356C 680.23,365.303 685.397,377.803 683,393.5C 679.247,407.586 670.414,416.752 656.5,421C 647.866,422.263 639.199,423.263 630.5,424C 607.205,431.757 598.371,447.59 604,471.5C 605.829,475.828 608.162,479.828 611,483.5C 620.381,491.532 627.381,501.199 632,512.5C 634.894,535.229 625.394,549.729 603.5,556C 597.775,556.717 592.109,556.384 586.5,555C 579.422,552.53 572.422,549.863 565.5,547C 542.662,542.332 527.162,550.832 519,572.5C 518.333,578.5 518.333,584.5 519,590.5C 523.729,601.743 525.396,613.41 524,625.5C 518.804,642.519 507.304,651.519 489.5,652.5C 481.883,652.238 474.883,650.072 468.5,646C 460.833,637.667 453.167,629.333 445.5,621C 431.375,611.42 417.041,611.087 402.5,620C 396.102,624.738 391.602,630.905 389,638.5C 386.823,647.543 384.489,656.543 382,665.5C 371.34,684.614 355.507,690.78 334.5,684C 325.942,679.776 319.776,673.276 316,664.5C 313.54,655.202 311.207,645.869 309,636.5C 297.466,614.876 280.3,608.71 257.5,618C 248.157,625.677 239.824,634.343 232.5,644C 216.249,655.534 200.249,655.201 184.5,643C 176.018,634.194 172.518,623.694 174,611.5C 176.802,601.626 178.969,591.626 180.5,581.5C 178.709,559.274 166.709,547.274 144.5,545.5C 133.299,546.732 122.632,549.899 112.5,555C 94.314,559.499 80.1473,553.999 70,538.5C 63.5525,525.433 64.2191,512.766 72,500.5C 77.6667,494.167 83.3333,487.833 89,481.5C 99.2037,465.942 98.8704,450.608 88,435.5C 82.1114,429.973 75.2781,426.139 67.5,424C 57.7246,423.389 48.0579,422.056 38.5,420C 23.7741,413.757 15.7741,402.591 14.5,386.5C 15.1992,372.931 21.1992,362.431 32.5,355C 41.0099,351.274 49.6766,347.941 58.5,345C 74.2185,336.06 80.7185,322.56 78,304.5C 75.5299,295.723 70.6966,288.556 63.5,283C 56.328,278.581 49.328,273.915 42.5,269C 30.1002,255.157 28.2668,239.99 37,223.5C 42.6876,215.157 50.5209,209.99 60.5,208C 72.0554,207.802 83.5554,208.635 95,210.5C 117.104,208.563 128.937,196.563 130.5,174.5C 130.496,170.431 129.996,166.431 129,162.5C 124.922,154.009 120.588,145.676 116,137.5C 109.685,114.968 117.185,99.1347 138.5,90C 146.619,87.7707 154.619,88.1041 162.5,91C 170.172,95.1673 177.505,99.8339 184.5,105C 202.368,115.231 218.535,113.064 233,98.5C 237.005,93.4887 239.672,87.822 241,81.5C 241.333,71.1667 241.667,60.8333 242,50.5C 245.347,33.9872 255.18,23.9872 271.5,20.5 Z M 334.5,145.5 C 420.73,143.351 486.23,178.684 531,251.5C 543.86,274.248 552.027,298.581 555.5,324.5C 417.833,324.5 280.167,324.5 142.5,324.5C 153.37,258.897 187.037,208.73 243.5,174C 271.837,157.837 302.171,148.337 334.5,145.5 Z M 142.5,384.5 C 201.5,384.5 260.5,384.5 319.5,384.5C 319.5,443.167 319.5,501.833 319.5,560.5C 240.194,546.687 185.027,502.687 154,428.5C 148.625,414.212 144.791,399.545 142.5,384.5 Z M 379.5,384.5 C 438.167,384.5 496.833,384.5 555.5,384.5C 541.791,461.705 499.125,516.205 427.5,548C 411.99,554.044 395.99,558.211 379.5,560.5C 379.5,501.833 379.5,443.167 379.5,384.5 Z"/></g>
<g><path style="opacity:1" fill="#FFF" d="M 256.5,227.5 C 275.324,228.158 283.491,237.825 281,256.5C 275.798,269.352 266.298,274.186 252.5,271C 241.789,266.293 236.955,258.127 238,246.5C 240.348,236.32 246.515,229.987 256.5,227.5 Z"/></g>
<g><path style="opacity:1" fill="#FFF" d="M 435.5,227.5 C 454.33,228.163 462.497,237.83 460,256.5C 452.458,271.903 440.958,275.736 425.5,268C 415.899,259.283 414.066,249.117 420,237.5C 424.239,232.479 429.406,229.146 435.5,227.5 Z"/></g>
</svg>
